<svg width="30" height="30" viewBox="0 0 30 30" fill="none" xmlns="http://www.w3.org/2000/svg">
<g clip-path="url(#clip0_2049_278)">
<path d="M27.4805 13.6025C26.7904 13.6025 26.2305 13.0426 26.2305 12.3526C26.2305 8.84632 24.8655 5.55134 22.3867 3.07118C21.898 2.58252 21.898 1.79264 22.3867 1.30375C22.8754 0.81509 23.6655 0.81509 24.1541 1.30375C27.1056 4.25496 28.7304 8.17891 28.7304 12.3526C28.7304 13.0426 28.1705 13.6025 27.4805 13.6025Z" fill="#4CAF50"/>
<path d="M2.48039 13.6025C1.79054 13.6025 1.23047 13.0426 1.23047 12.3526C1.23047 8.17891 2.85553 4.25496 5.80673 1.30375C6.29539 0.81509 7.08549 0.81509 7.57416 1.30375C8.06305 1.79264 8.06305 2.58252 7.57416 3.07118C5.09537 5.54997 3.73055 8.84632 3.73055 12.3526C3.73055 13.0426 3.17047 13.6025 2.48039 13.6025Z" fill="#4CAF50"/>
<path d="M19.9805 25C19.9805 27.7615 17.742 30 14.9806 30C12.2191 30 9.98041 27.7615 9.98041 25C9.98041 22.2386 12.2191 19.9999 14.9806 19.9999C17.742 19.9999 19.9805 22.2386 19.9805 25Z" fill="#FFC107"/>
<path d="M14.9806 4.99992C14.2905 4.99992 13.7304 4.44008 13.7304 3.75V1.24992C13.7304 0.560074 14.2905 0 14.9806 0C15.6704 0 16.2305 0.560074 16.2305 1.24992V3.75C16.2305 4.44008 15.6704 4.99992 14.9806 4.99992Z" fill="#FFA000"/>
<path d="M26.7043 21.14C24.8142 19.5424 23.7305 17.2088 23.7305 14.735V11.25C23.7305 6.42499 19.8042 2.50012 14.9805 2.50012C10.1566 2.50012 6.23038 6.42499 6.23038 11.25V14.735C6.23038 17.2088 5.14662 19.5438 3.24553 21.1512C2.75916 21.5662 2.48038 22.1725 2.48038 22.8125C2.48038 24.0189 3.46159 25.0001 4.66803 25.0001H25.293C26.4992 25.0001 27.4805 24.0189 27.4805 22.8125C27.4805 22.1725 27.2017 21.5662 26.7043 21.14Z" fill="#FFC107"/>
</g>
<defs>
<clipPath id="clip0_2049_278">
<rect width="30" height="30" fill="white"/>
</clipPath>
</defs>
</svg>
