<svg width="20" height="20" viewBox="0 0 20 20" fill="none" xmlns="http://www.w3.org/2000/svg">
<g clip-path="url(#clip0_2_413)">
<path d="M12.499 8.12513H11.8741V6.87523C11.8741 5.49659 10.7529 4.37543 9.37428 4.37543C7.99564 4.37543 6.87448 5.49659 6.87448 6.87523V8.12513H6.24952C5.90455 8.12513 5.62457 8.40511 5.62457 8.75009V13.7497C5.62457 14.0947 5.90455 14.3746 6.24952 14.3746H12.499C12.844 14.3746 13.124 14.0947 13.124 13.7497V8.75009C13.124 8.40511 12.844 8.12513 12.499 8.12513ZM8.12438 6.87523C8.12438 6.18654 8.68433 5.62533 9.37428 5.62533C10.0642 5.62533 10.6242 6.18654 10.6242 6.87523V8.12513H8.12438V6.87523ZM11.8741 13.1247H6.87448V9.37504H11.8741V13.1247Z" fill="#71839B"/>
<path d="M19.6072 6.29529C19.286 6.16655 18.9223 6.32279 18.796 6.64401L18.4223 7.57894C17.3486 3.5805 13.7052 0.625732 9.37427 0.625732C4.20467 0.625732 0 4.8304 0 10C0 15.1696 4.20467 19.3743 9.37427 19.3743C11.8778 19.3743 14.2314 18.3993 16.0037 16.6282C16.2475 16.3845 16.2475 15.9883 16.0037 15.7446C15.76 15.5008 15.3638 15.5008 15.1201 15.7446C13.5839 17.2794 11.5428 18.1244 9.37427 18.1244C4.89462 18.1244 1.2499 14.4796 1.2499 10C1.2499 5.52035 4.89462 1.87563 9.37427 1.87563C13.2752 1.87563 16.5412 4.64042 17.3199 8.31263L16.0662 7.05773C15.8225 6.814 15.4263 6.814 15.1826 7.05773C14.9388 7.30146 14.9388 7.69768 15.1826 7.94141L17.6824 10.4412C17.6961 10.455 17.7149 10.46 17.7299 10.4725C17.7774 10.5125 17.8261 10.5512 17.8836 10.575C17.9586 10.6087 18.0411 10.625 18.1236 10.625C18.1648 10.625 18.2073 10.6212 18.2498 10.6125C18.2673 10.6087 18.2798 10.595 18.2961 10.59C18.3598 10.5712 18.4173 10.5425 18.4711 10.5062C18.4948 10.49 18.5186 10.4787 18.5398 10.46C18.6085 10.3975 18.666 10.3237 18.7023 10.2362C18.7023 10.235 18.7035 10.2337 18.7048 10.2325L19.9547 7.10773C20.0834 6.78775 19.9284 6.42403 19.6072 6.29529Z" fill="#71839B"/>
</g>
<defs>
<clipPath id="clip0_2_413">
<rect width="20" height="20" fill="white"/>
</clipPath>
</defs>
</svg>
