<svg width="20" height="20" viewBox="0 0 20 20" fill="none" xmlns="http://www.w3.org/2000/svg">
<g clip-path="url(#clip0_2_424)">
<path d="M20 4.35089C20 3.33604 19.1743 2.51038 18.1595 2.51038H1.84052C0.825863 2.51042 0.000351564 3.33569 0 4.3512V4.35152V15.6484C0 16.6759 0.834066 17.4895 1.84114 17.4895H18.1588C19.1863 17.4895 20 16.6555 20 15.6484V4.35152C20 4.35144 20 4.35136 20 4.35128C20 4.35116 20 4.35105 20 4.35089ZM1.84052 3.68229H18.1595C18.5282 3.68229 18.8281 3.98226 18.8281 4.35187C18.8281 4.54827 18.7305 4.73058 18.5668 4.83964L10.3713 10.3036C10.1458 10.4539 9.8543 10.454 9.62875 10.3036C9.62875 10.3036 1.43301 4.83953 1.43317 4.83964C1.43321 4.83968 1.43305 4.83956 1.43301 4.83953C1.2695 4.73058 1.17188 4.54827 1.17188 4.35089C1.17188 3.98222 1.47184 3.68229 1.84052 3.68229ZM18.1589 16.3177H1.84114C1.47633 16.3177 1.17188 16.0227 1.17188 15.6484V6.07391L8.97867 11.2786C9.2889 11.4854 9.64445 11.5888 10 11.5888C10.3556 11.5888 10.7112 11.4854 11.0214 11.2786L18.8281 6.07391V15.6484C18.8281 16.0132 18.5332 16.3177 18.1589 16.3177Z" fill="#71839B"/>
</g>
<defs>
<clipPath id="clip0_2_424">
<rect width="20" height="20" fill="white"/>
</clipPath>
</defs>
</svg>
