<svg width="20" height="20" viewBox="0 0 20 20" fill="none" xmlns="http://www.w3.org/2000/svg">
<g clip-path="url(#clip0_2_462)">
<path d="M12.132 9.40281C13.028 8.695 13.6037 7.60176 13.6037 6.37707C13.6037 4.24817 11.8644 2.51617 9.72641 2.51617C7.58844 2.51617 5.84906 4.24817 5.84906 6.37707C5.84906 6.5166 5.85672 6.65442 5.87129 6.79016C5.43059 6.54949 4.92516 6.41235 4.38805 6.41235C2.68129 6.41235 1.29277 7.79528 1.29277 9.49512C1.29277 10.3814 1.67074 11.1809 2.27391 11.7438C0.936524 12.331 0 13.6679 0 15.2196V18.8044C0 19.4637 0.536328 20 1.19559 20H5.53898H5.92961H13.9137C14.6778 20 15.2994 19.3784 15.2994 18.6144V13.9124C15.2994 11.8398 13.9771 10.0704 12.132 9.40281ZM9.72641 3.68805C11.2182 3.68805 12.4318 4.89434 12.4318 6.37707C12.4318 7.85981 11.2182 9.0661 9.72641 9.0661C8.23461 9.0661 7.02094 7.85981 7.02094 6.37707C7.02094 4.89434 8.23461 3.68805 9.72641 3.68805ZM4.38805 7.58422C5.44863 7.58422 6.31148 8.44145 6.31148 9.49512C6.31148 9.64793 6.29305 9.79957 6.25734 9.94633C5.71848 10.313 5.25785 10.7864 4.90621 11.336C4.73852 11.3825 4.56488 11.4061 4.38805 11.4061C3.3275 11.4061 2.46465 10.5488 2.46465 9.49512C2.46465 8.44149 3.3275 7.58422 4.38805 7.58422ZM1.17188 18.8044V15.2196C1.17188 13.7737 2.34816 12.5974 3.79402 12.5974H4.3368C4.21738 13.0154 4.1534 13.4566 4.1534 13.9124V18.6144C4.1534 18.6871 4.1591 18.7584 4.16992 18.8281H1.19559C1.18387 18.8281 1.17188 18.8161 1.17188 18.8044ZM14.1275 18.6144C14.1275 18.7302 14.0296 18.8281 13.9137 18.8281H5.92965H5.53902C5.42316 18.8281 5.32527 18.7302 5.32527 18.6144V13.9124C5.32527 11.9152 6.95008 10.2904 8.94723 10.2904H10.5055C12.5027 10.2904 14.1275 11.9152 14.1275 13.9124V18.6144Z" fill="#71839B"/>
<path d="M19.4141 1.65461H18.3371V0.585938C18.3371 0.262344 18.0747 0 17.7511 0C17.4276 0 17.1652 0.262344 17.1652 0.585938V1.65461H16.0883C15.7647 1.65461 15.5023 1.91695 15.5023 2.24055C15.5023 2.56414 15.7647 2.82648 16.0883 2.82648H17.1652V3.8952C17.1652 4.21879 17.4276 4.48113 17.7511 4.48113C18.0747 4.48113 18.3371 4.21879 18.3371 3.8952V2.82648H19.4141C19.7377 2.82648 20 2.56414 20 2.24055C20 1.91695 19.7377 1.65461 19.4141 1.65461Z" fill="#71839B"/>
</g>
<defs>
<clipPath id="clip0_2_462">
<rect width="20" height="20" fill="white"/>
</clipPath>
</defs>
</svg>
