<svg width="30" height="30" viewBox="0 0 30 30" fill="none" xmlns="http://www.w3.org/2000/svg">
<g clip-path="url(#clip0_2_205)">
<path d="M25.6055 21.2109H22.0898C19.6641 21.2109 17.6953 23.1797 17.6953 25.6055V29.1211C17.6953 29.6133 18.082 30 18.5742 30H29.1211C29.6133 30 30 29.6133 30 29.1211V25.6055C30 23.1797 28.0312 21.2109 25.6055 21.2109Z" fill="#2B75AD"/>
<path d="M30 25.6055V29.1211C30 29.6133 29.6133 30 29.1211 30H23.8477V21.2109H25.6055C28.0312 21.2109 30 23.1797 30 25.6055Z" fill="#2B75AD"/>
<path d="M7.91016 21.2109H4.39453C1.96875 21.2109 0 23.1797 0 25.6055V29.1211C0 29.6133 0.38666 30 0.878906 30H11.4258C11.918 30 12.3047 29.6133 12.3047 29.1211V25.6055C12.3047 23.1797 10.3359 21.2109 7.91016 21.2109Z" fill="#CF0404"/>
<path d="M12.3047 25.6055V29.1211C12.3047 29.6133 11.918 30 11.4258 30H6.15234V21.2109H7.91016C10.3359 21.2109 12.3047 23.1797 12.3047 25.6055Z" fill="#CF0404"/>
<path d="M6.15234 15.9375C4.21881 15.9375 2.63672 17.5196 2.63672 19.4531C2.63672 21.3867 4.21881 22.9688 6.15234 22.9688C8.08588 22.9688 9.66797 21.3867 9.66797 19.4531C9.66797 17.5196 8.08588 15.9375 6.15234 15.9375Z" fill="#FF3F2E"/>
<path d="M23.8477 15.9375C21.9141 15.9375 20.332 17.5196 20.332 19.4531C20.332 21.3867 21.9141 22.9688 23.8477 22.9688C25.7812 22.9688 27.3633 21.3867 27.3633 19.4531C27.3633 17.5196 25.7812 15.9375 23.8477 15.9375Z" fill="#4AB8F7"/>
<path d="M27.3633 19.4531C27.3633 21.3867 25.7812 22.9688 23.8477 22.9688V15.9375C25.7812 15.9375 27.3633 17.5196 27.3633 19.4531Z" fill="#1EA1E3"/>
<path d="M9.66797 19.4531C9.66797 21.3867 8.08588 22.9688 6.15234 22.9688V15.9375C8.08588 15.9375 9.66797 17.5196 9.66797 19.4531Z" fill="#CF0404"/>
<path d="M23.7891 2.12701C23.2441 1.88086 22.6464 1.75781 22.0312 1.75781H16.2831C15.8437 1.75781 15.4746 2.0918 15.4218 2.53125L14.121 13.0781C14.0682 13.6055 14.4726 14.0625 14.9999 14.0625H18.1464L21.416 17.3144C21.961 17.8769 22.9102 17.4902 22.9102 16.6992V13.9746C23.2089 13.9218 23.5079 13.8163 23.7891 13.6933C25.3359 13.0253 26.4258 11.4786 26.4258 9.66797V6.15234C26.4258 4.34174 25.3359 2.79498 23.7891 2.12701Z" fill="#355382"/>
<path d="M15 0H7.96875C7.35357 0 6.75586 0.123047 6.21094 0.369199C4.66406 1.03717 3.57422 2.58393 3.57422 4.39453V9.66797C3.57422 11.4786 4.66406 13.0253 6.21094 13.6933C6.49213 13.8163 6.79107 13.9218 7.08984 13.9746V16.6992C7.08984 17.4902 8.039 17.8769 8.58393 17.3144L11.4844 14.4317L11.8536 14.0625H15C17.4258 14.0625 19.3945 12.0938 19.3945 9.66797V4.39453C19.3945 1.96875 17.4258 0 15 0Z" fill="#FFDA45"/>
<path d="M14.7363 5.00971L11.4844 8.26172C11.015 8.73082 10.5121 9.07465 9.9903 8.52533L8.23248 6.76752C7.88092 6.43354 7.88092 5.87115 8.23248 5.53711C8.56647 5.18555 9.12885 5.18555 9.46289 5.53711L10.6055 6.66205L11.4844 5.78314L13.5059 3.7793C13.8399 3.42773 14.4023 3.42773 14.7363 3.7793C15.0879 4.11334 15.0879 4.67572 14.7363 5.00971Z" fill="#3F6199"/>
</g>
<defs>
<clipPath id="clip0_2_205">
<rect width="30" height="30" fill="white"/>
</clipPath>
</defs>
</svg>
