<svg width="20" height="20" viewBox="0 0 20 20" fill="none" xmlns="http://www.w3.org/2000/svg">
<g clip-path="url(#clip0_2_467)">
<path d="M9.58325 13.7629H10.4167V19.5964H9.58325V13.7629Z" fill="#71839B"/>
<path d="M3.75 12.0964H16.25V12.9297H3.75V12.0964Z" fill="#71839B"/>
<path d="M17.9167 6.67966C16.7679 6.67966 15.8333 5.74506 15.8333 4.59637C15.8333 3.44754 16.7679 2.51294 17.9167 2.51294C19.0654 2.51294 20 3.44754 20 4.59637C20 5.74506 19.0654 6.67966 17.9167 6.67966ZM17.9167 3.34637C17.2274 3.34637 16.6667 3.90714 16.6667 4.59637C16.6667 5.28546 17.2274 5.84637 17.9167 5.84637C18.6058 5.84637 19.1667 5.28546 19.1667 4.59637C19.1667 3.90714 18.6058 3.34637 17.9167 3.34637Z" fill="#71839B"/>
<path d="M13.75 19.5964C13.6951 19.5964 13.6393 19.5858 13.5858 19.5625C13.3742 19.4717 13.2762 19.2268 13.3672 19.0155L14.6172 16.0988C14.6825 15.9456 14.8334 15.8464 15 15.8464H17.9167C18.6058 15.8464 19.1667 15.2855 19.1667 14.5964V9.17966C19.1667 8.72006 18.7929 8.34637 18.3333 8.34637H17.9167C17.6242 8.34637 17.358 8.5397 16.9992 9.01471C16.5967 9.54633 15.3751 11.0463 15.3234 11.1096C15.2437 11.2068 15.1255 11.2629 15 11.2629H12.9167C12.6866 11.2629 12.5 11.4497 12.5 11.6797V12.5129C12.5 12.7433 12.3137 12.9297 12.0833 12.9297C11.8529 12.9297 11.6667 12.7433 11.6667 12.5129V11.6797C11.6667 10.9904 12.2275 10.4297 12.9167 10.4297H14.8017C15.13 10.0255 16.015 8.93384 16.3343 8.51178C16.6863 8.04669 17.1837 7.51294 17.9167 7.51294H18.3333C19.2525 7.51294 20 8.26047 20 9.17966V14.5964C20 15.7451 19.0654 16.6797 17.9167 16.6797H15.2747L14.1329 19.3438C14.0654 19.5018 13.9116 19.5964 13.75 19.5964Z" fill="#71839B"/>
<path d="M12.0833 19.5964C12.0399 19.5964 11.9954 19.5893 11.9516 19.5748C11.7337 19.5023 11.6154 19.2664 11.6884 19.0476L13.07 14.9022C13.2962 14.2214 13.932 13.763 14.6509 13.763H15.8333V12.513C15.8333 12.2826 16.0196 12.0964 16.25 12.0964C16.4804 12.0964 16.6667 12.2826 16.6667 12.513V14.1797C16.6667 14.4101 16.4804 14.5964 16.25 14.5964H14.6509C14.2917 14.5964 13.9737 14.8252 13.8608 15.1656L12.4788 19.3114C12.4203 19.486 12.2578 19.5964 12.0833 19.5964Z" fill="#71839B"/>
<path d="M16.2495 12.9297C16.1626 12.9297 16.075 12.9027 16.0001 12.8464C15.8159 12.7084 15.7784 12.4472 15.9166 12.2635L17.1666 10.5968C17.3045 10.4126 17.5658 10.3755 17.7496 10.5134C17.9338 10.6514 17.9712 10.9126 17.8329 11.0963L16.5829 12.7631C16.5016 12.8722 16.3767 12.9297 16.2495 12.9297Z" fill="#71839B"/>
<path d="M2.08328 6.67966C0.934601 6.67966 0 5.74506 0 4.59637C0 3.44754 0.934601 2.51294 2.08328 2.51294C3.23212 2.51294 4.16672 3.44754 4.16672 4.59637C4.16672 5.74506 3.23212 6.67966 2.08328 6.67966ZM2.08328 3.34637C1.3942 3.34637 0.833282 3.90714 0.833282 4.59637C0.833282 5.28546 1.3942 5.84637 2.08328 5.84637C2.77252 5.84637 3.33328 5.28546 3.33328 4.59637C3.33328 3.90714 2.77252 3.34637 2.08328 3.34637Z" fill="#71839B"/>
<path d="M6.25 19.5964C6.08841 19.5964 5.9346 19.5018 5.86716 19.3438L4.72534 16.6797H2.08328C0.934601 16.6797 0 15.7451 0 14.5964V9.17966C0 8.26047 0.747528 7.51294 1.66672 7.51294H2.08328C2.81631 7.51294 3.31421 8.04669 3.66547 8.51178C3.98499 8.93384 4.86954 10.0255 5.19791 10.4297H7.08328C7.77252 10.4297 8.33328 10.9904 8.33328 11.6797V12.5129C8.33328 12.7433 8.14667 12.9297 7.91672 12.9297C7.68661 12.9297 7.5 12.7433 7.5 12.5129V11.6797C7.5 11.4497 7.31293 11.2629 7.08328 11.2629H5C4.87457 11.2629 4.75632 11.2068 4.67712 11.1096C4.6254 11.0463 3.40332 9.54633 3.00125 9.01425C2.64206 8.5397 2.37625 8.34637 2.08328 8.34637H1.66672C1.20712 8.34637 0.833282 8.72006 0.833282 9.17966V14.5964C0.833282 15.2855 1.3942 15.8464 2.08328 15.8464H5C5.16663 15.8464 5.31754 15.9456 5.38284 16.0988L6.63284 19.0155C6.72379 19.2268 6.62537 19.4717 6.41418 19.5625C6.36078 19.5858 6.30493 19.5964 6.25 19.5964Z" fill="#71839B"/>
<path d="M7.91669 19.5964C7.74213 19.5964 7.57962 19.486 7.52118 19.3114L6.1395 15.1659C6.02628 14.8256 5.70828 14.5964 5.34909 14.5964H3.74997C3.52002 14.5964 3.33325 14.4101 3.33325 14.1797V12.513C3.33325 12.2826 3.52002 12.0964 3.74997 12.0964C3.97992 12.0964 4.16669 12.2826 4.16669 12.513V13.763H5.34909C6.06793 13.763 6.70331 14.2209 6.93036 14.9022L8.31204 19.0476C8.38498 19.2659 8.26703 19.5023 8.04868 19.5748C8.00458 19.5893 7.96002 19.5964 7.91669 19.5964Z" fill="#71839B"/>
<path d="M3.75046 12.9297C3.62381 12.9297 3.49869 12.8722 3.4166 12.7631L2.1666 11.0963C2.02835 10.9126 2.06589 10.6514 2.25006 10.5134C2.435 10.3755 2.69577 10.4126 2.83341 10.5968L4.08341 12.2635C4.22165 12.4472 4.18412 12.7084 3.99994 12.8464C3.92502 12.9027 3.83713 12.9297 3.75046 12.9297Z" fill="#71839B"/>
<path d="M13.3333 11.263C13.1029 11.263 12.9167 11.0768 12.9167 10.8464V7.92969C12.9167 7.0105 12.1692 6.26297 11.25 6.26297H8.75C7.83081 6.26297 7.08328 7.0105 7.08328 7.92969V9.17969C7.08328 9.40964 6.89667 9.59641 6.66672 9.59641C6.43661 9.59641 6.25 9.40964 6.25 9.17969V7.92969C6.25 6.5509 7.37122 5.42969 8.75 5.42969H11.25C12.6288 5.42969 13.75 6.5509 13.75 7.92969V10.8464C13.75 11.0768 13.5637 11.263 13.3333 11.263Z" fill="#71839B"/>
<path d="M9.99997 4.59641C8.85129 4.59641 7.91669 3.6618 7.91669 2.51297C7.91669 1.36429 8.85129 0.429688 9.99997 0.429688C11.1487 0.429688 12.0833 1.36429 12.0833 2.51297C12.0833 3.6618 11.1487 4.59641 9.99997 4.59641ZM9.99997 1.26297C9.31073 1.26297 8.74997 1.82388 8.74997 2.51297C8.74997 3.20221 9.31073 3.76297 9.99997 3.76297C10.6892 3.76297 11.25 3.20221 11.25 2.51297C11.25 1.82388 10.6892 1.26297 9.99997 1.26297Z" fill="#71839B"/>
<path d="M9.58325 7.09637H10.4167V7.92966H9.58325V7.09637Z" fill="#71839B"/>
</g>
<defs>
<clipPath id="clip0_2_467">
<rect width="20" height="20" fill="white"/>
</clipPath>
</defs>
</svg>
