<svg width="30" height="30" viewBox="0 0 30 30" fill="none" xmlns="http://www.w3.org/2000/svg">
<g clip-path="url(#clip0_2001_73)">
<path d="M11.7857 10.1786C11.7857 9.88272 12.0255 9.64283 12.3214 9.64283C12.6173 9.64283 12.8572 9.88266 12.8572 10.1786V13.9286H17.1429V10.1786C17.1429 9.88272 17.3827 9.64283 17.6786 9.64283C17.9744 9.64283 18.2143 9.88266 18.2143 10.1786V13.9286H19.2858V10.1786C19.284 8.69994 18.0858 7.50176 16.6072 7.5H13.3929C11.9143 7.50176 10.7161 8.7 10.7144 10.1786V13.9286H11.7858V10.1786H11.7857Z" fill="#356CF9"/>
<path d="M15 6.42855C16.7752 6.42855 18.2143 4.98947 18.2143 3.21428C18.2143 1.43908 16.7752 0 15 0C13.2248 0 11.7857 1.43908 11.7857 3.21428C11.7857 4.98947 13.2248 6.42855 15 6.42855Z" fill="#356CF9"/>
<path d="M26.3035 19.9912L28.6945 24.136C29.1818 23.7325 29.464 23.1327 29.4643 22.5V15C29.4625 13.5214 28.2643 12.3232 26.7857 12.3214C25.3074 12.324 24.1098 13.5218 24.1072 15V16.1785L24.1366 16.2294L24.9107 14.8735C25.061 14.6244 25.3826 14.5408 25.6352 14.6851C25.8878 14.8294 25.979 15.149 25.8407 15.4049L24.2379 18.2104C24.0469 18.5444 23.6915 18.7503 23.3068 18.7499H20.4541C20.0225 18.7334 19.6465 19.0418 19.5782 19.4683C19.5537 19.6959 19.6278 19.9231 19.7818 20.0924C19.9332 20.262 20.1501 20.3584 20.3775 20.3571H24.1387C24.5855 20.3564 24.9979 20.1172 25.2203 19.7298L27.1976 16.269C27.3479 16.02 27.6695 15.9363 27.9221 16.0807C28.1747 16.225 28.266 16.5446 28.1276 16.8005L26.3035 19.9912Z" fill="#356CF9"/>
<path d="M9.54591 17.6785C10.5267 17.6657 11.3616 18.3896 11.4879 19.3623C11.542 19.8901 11.37 20.4161 11.0144 20.8099C10.6589 21.2038 10.1531 21.4285 9.62255 21.4285H5.8613C5.32985 21.4271 4.81499 21.2431 4.40307 20.9073L0.393738 27.8571H29.6062L25.597 20.9073C25.185 21.2431 24.6702 21.4272 24.1387 21.4286H20.3775C19.8469 21.4286 19.3411 21.2039 18.9856 20.81C18.63 20.4162 18.458 19.8901 18.5121 19.3623C18.6384 18.3896 19.4733 17.6658 20.4541 17.6786H23.3068L23.521 17.3036L22.3468 15.2679C22.2503 15.1007 22.0715 14.9984 21.8785 15H8.12143C7.92813 14.9981 7.74878 15.1005 7.65216 15.2679L6.47893 17.3036L6.69321 17.6786H9.54591V17.6785Z" fill="#356CF9"/>
<path d="M0.535723 30H29.4643C29.7601 30 30 29.7602 30 29.4643V28.9286H0V29.4643C0 29.7602 0.239824 30 0.535723 30Z" fill="#356CF9"/>
<path d="M3.21428 11.25C4.98947 11.25 6.42855 9.81088 6.42855 8.03569C6.42855 6.26049 4.98947 4.82141 3.21428 4.82141C1.43908 4.82141 0 6.26049 0 8.03569C0 9.81088 1.43908 11.25 3.21428 11.25Z" fill="#356CF9"/>
<path d="M26.7857 11.25C28.5609 11.25 30 9.81088 30 8.03569C30 6.26049 28.5609 4.82141 26.7857 4.82141C25.0105 4.82141 23.5714 6.26049 23.5714 8.03569C23.5714 9.81088 25.0105 11.25 26.7857 11.25Z" fill="#356CF9"/>
<path d="M4.35968 14.6742C4.6165 14.5276 4.94357 14.6168 5.0904 14.8735L5.86343 16.2267L5.8929 16.1785V15C5.89027 13.5217 4.69255 12.324 3.21435 12.3214C1.73568 12.3232 0.537494 13.5214 0.535736 15V22.5C0.53556 23.1325 0.817162 23.7322 1.30396 24.136L3.69646 19.9912L1.87501 16.8005C1.73667 16.5446 1.8279 16.225 2.0805 16.0807C2.3331 15.9364 2.65472 16.02 2.80501 16.269L4.78232 19.7298C5.00427 20.1164 5.41542 20.3555 5.86126 20.3571H9.62251C9.84986 20.3584 10.0668 20.262 10.2182 20.0924C10.3722 19.9231 10.4463 19.6958 10.4218 19.4683C10.3535 19.0418 9.97753 18.7334 9.54587 18.7499H6.69318C6.30874 18.7498 5.95384 18.5437 5.76318 18.2099L4.16035 15.4049C4.01369 15.1482 4.10292 14.8211 4.35968 14.6742Z" fill="#356CF9"/>
</g>
<defs>
<clipPath id="clip0_2001_73">
<rect width="30" height="30" fill="white"/>
</clipPath>
</defs>
</svg>
