<svg width="20" height="20" viewBox="0 0 20 20" fill="none" xmlns="http://www.w3.org/2000/svg">
<path d="M10 3.75C9.655 3.75 9.375 3.47 9.375 3.125V2.5C9.375 2.155 9.655 1.875 10 1.875C10.345 1.875 10.625 2.155 10.625 2.5V3.125C10.625 3.47 10.345 3.75 10 3.75Z" fill="#71839B"/>
<path d="M15.4543 9.20471C15.1093 9.20471 14.8293 8.92471 14.8293 8.57971C14.8293 6.03971 12.7669 3.87533 10.2319 3.75533C7.69373 3.63814 5.43091 5.59283 5.19185 8.11814C5.17748 8.26908 5.17029 8.42408 5.17029 8.57971C5.17029 8.92471 4.89029 9.20471 4.54529 9.20471C4.20029 9.20471 3.92029 8.92471 3.92029 8.57971C3.92029 8.38471 3.92935 8.18971 3.94748 8.00033C4.24841 4.82033 7.09748 2.35658 10.2909 2.50689C13.4828 2.65783 16.0793 5.38221 16.0793 8.57971C16.0793 8.92502 15.7993 9.20471 15.4543 9.20471Z" fill="#71839B"/>
<path d="M16.6259 13.4675C16.4719 13.4675 16.3172 13.4106 16.1962 13.2966C15.3275 12.4741 14.829 11.3159 14.829 10.1194C14.829 9.77438 15.109 9.49438 15.454 9.49438C15.799 9.49438 16.079 9.77438 16.079 10.1194C16.079 10.9741 16.435 11.8016 17.0556 12.3888C17.3062 12.6259 17.3172 13.0216 17.08 13.2725C16.9572 13.4019 16.7915 13.4675 16.6259 13.4675Z" fill="#71839B"/>
<path d="M3.37346 13.4675C3.20752 13.4675 3.04221 13.4022 2.91939 13.2722C2.68221 13.0216 2.69314 12.6259 2.94377 12.3888C3.56439 11.8016 3.92033 10.9744 3.92033 10.1194C3.92033 9.77438 4.20033 9.49438 4.54533 9.49438C4.89033 9.49438 5.17033 9.77438 5.17033 10.1194C5.17033 11.3166 4.67189 12.4747 3.80314 13.2966C3.68189 13.4106 3.52752 13.4675 3.37346 13.4675Z" fill="#71839B"/>
<path d="M10 18.125C8.30625 18.125 6.875 16.6937 6.875 15C6.875 14.655 7.155 14.375 7.5 14.375C7.845 14.375 8.125 14.655 8.125 15C8.125 16.0163 8.98375 16.875 10 16.875C11.0163 16.875 11.875 16.0163 11.875 15C11.875 14.655 12.155 14.375 12.5 14.375C12.845 14.375 13.125 14.655 13.125 15C13.125 16.6937 11.6937 18.125 10 18.125Z" fill="#71839B"/>
<path d="M4.23248 15.625C3.47092 15.625 2.79342 15.1594 2.50623 14.4388C2.21873 13.7172 2.3903 12.9125 2.94342 12.3888C3.19405 12.1513 3.58936 12.1622 3.82717 12.4128C4.06436 12.6635 4.05373 13.0591 3.80311 13.2966C3.52936 13.556 3.62998 13.8825 3.66748 13.9763C3.70467 14.0694 3.85561 14.375 4.23248 14.375C4.57748 14.375 4.85748 14.655 4.85748 15C4.85748 15.345 4.5778 15.625 4.23248 15.625Z" fill="#71839B"/>
<path d="M15.7668 15.625C15.4218 15.625 15.1418 15.345 15.1418 15C15.1418 14.655 15.4218 14.375 15.7668 14.375C16.144 14.375 16.2953 14.0681 16.3328 13.9741C16.37 13.8806 16.4703 13.5553 16.1965 13.2963C15.9459 13.0588 15.935 12.6635 16.1722 12.4125C16.4097 12.1619 16.805 12.151 17.0559 12.3881C17.609 12.9119 17.7809 13.716 17.494 14.4363C17.2065 15.1585 16.5284 15.625 15.7668 15.625Z" fill="#71839B"/>
<path d="M4.54498 10.7441C4.19998 10.7441 3.91998 10.4641 3.91998 10.1191V8.57971C3.91998 8.23471 4.19998 7.95471 4.54498 7.95471C4.88998 7.95471 5.16998 8.23471 5.16998 8.57971V10.1191C5.16998 10.4641 4.8903 10.7441 4.54498 10.7441Z" fill="#71839B"/>
<path d="M15.4543 10.7441C15.1093 10.7441 14.8293 10.4641 14.8293 10.1191V8.57971C14.8293 8.23471 15.1093 7.95471 15.4543 7.95471C15.7993 7.95471 16.0793 8.23471 16.0793 8.57971V10.1191C16.0793 10.4641 15.7993 10.7441 15.4543 10.7441Z" fill="#71839B"/>
<path d="M15.7669 15.625H4.23248C3.88748 15.625 3.60748 15.345 3.60748 15C3.60748 14.655 3.88748 14.375 4.23248 14.375H15.7665C16.1115 14.375 16.3915 14.655 16.3915 15C16.3915 15.345 16.1119 15.625 15.7669 15.625Z" fill="#71839B"/>
</svg>
