<svg width="200" height="30" viewBox="0 0 200 30" fill="none" xmlns="http://www.w3.org/2000/svg">
<g clip-path="url(#clip0_2_174)">
<mask id="mask0_2_174" style="mask-type:luminance" maskUnits="userSpaceOnUse" x="-1" y="0" width="34" height="15">
<path d="M7.47498 4.90412e-10C5.49867 -2.26216e-05 3.60279 0.782605 2.20198 2.17671C0.801178 3.57081 0.00946695 5.46292 1.09568e-05 7.4392C-0.0238808 8.33243 0.131458 9.22139 0.456855 10.0536C0.782252 10.8858 1.27111 11.6443 1.89455 12.2844C2.518 12.9246 3.26339 13.4333 4.08671 13.7805C4.91003 14.1277 5.79459 14.3065 6.68814 14.3062H25.465C26.3584 14.3111 27.2438 14.137 28.0689 13.7942C28.894 13.4513 29.642 12.9465 30.2688 12.3098C30.8955 11.673 31.3884 10.9171 31.7181 10.0867C32.0479 9.2563 32.208 8.36824 32.1889 7.47496V7.15308C32.1889 5.25596 31.4352 3.43655 30.0938 2.09509C28.7523 0.753626 26.9329 4.90413e-10 25.0358 4.90412e-10L7.47498 4.90412e-10Z" fill="white"/>
</mask>
<g mask="url(#mask0_2_174)">
<path d="M31.6913 -3.84083L-1.65192 0.170532L0.484059 17.9252L33.8273 13.9138L31.6913 -3.84083Z" fill="url(#paint0_linear_2_174)"/>
</g>
<mask id="mask1_2_174" style="mask-type:luminance" maskUnits="userSpaceOnUse" x="8" y="10" width="24" height="20">
<path d="M28.3262 13.3405C27.705 13.6414 27.0418 13.8464 26.3591 13.9485C25.574 14.0226 24.7837 14.0226 23.9986 13.9485H17.6681C15.5222 13.9485 13.5551 13.9485 13.3047 13.9485L9.7282 18.0973C9.23504 18.9263 8.90999 19.8443 8.7716 20.7989C8.63322 21.7535 8.68421 22.726 8.92167 23.6609C9.15913 24.5958 9.57841 25.4747 10.1556 26.2476C10.7327 27.0205 11.4564 27.6721 12.2854 28.1652C13.1144 28.6584 14.0324 28.9834 14.987 29.1218C15.9416 29.2602 16.9141 29.2092 17.849 28.9718C18.7839 28.7343 19.6629 28.315 20.4357 27.7379C21.2086 27.1607 21.8602 26.437 22.3534 25.608L31.0801 10.98C30.4074 12.0145 29.4514 12.8339 28.3262 13.3405Z" fill="white"/>
</mask>
<g mask="url(#mask1_2_174)">
<path d="M28.6069 4.96576L1.38666 14.7764L10.3969 39.7759L37.6171 29.9653L28.6069 4.96576Z" fill="url(#paint1_linear_2_174)"/>
</g>
<mask id="mask2_2_174" style="mask-type:luminance" maskUnits="userSpaceOnUse" x="-1" y="-1" width="19" height="28">
<path d="M3.57653 1.03716C1.90263 2.04717 0.696165 3.67827 0.220428 5.57451C-0.255308 7.47076 0.0383042 9.4782 1.03719 11.1588L10.1931 26.359C9.28286 24.8867 8.79993 23.1902 8.79828 21.4592C8.82548 20.939 8.90943 20.4233 9.04864 19.9213C9.29727 19.1826 9.67243 18.4928 10.1574 17.8827C10.4565 17.4164 10.7913 16.9739 11.1588 16.5593C12.1392 15.6022 13.0477 14.5741 13.877 13.4835C14.5565 12.4106 14.7711 10.6223 17.2389 9.33473L13.7339 3.5765C13.0777 2.4761 12.1447 1.56684 11.0277 0.939321C9.91072 0.311801 8.64879 -0.0120737 7.36766 -3.40637e-05C6.0319 -0.0150856 4.7186 0.344211 3.57653 1.03716Z" fill="white"/>
</mask>
<g mask="url(#mask2_2_174)">
<path d="M8.49333 -9.13371L-14.1972 12.6257L7.73552 35.497L30.426 13.7375L8.49333 -9.13371Z" fill="url(#paint2_linear_2_174)"/>
</g>
<mask id="mask3_2_174" style="mask-type:luminance" maskUnits="userSpaceOnUse" x="0" y="-1" width="33" height="31">
<path d="M32.1531 -0.0357666H0V29.3634H32.1531V-0.0357666Z" fill="white"/>
</mask>
<g mask="url(#mask3_2_174)">
<path d="M22.8899 6.65234H9.22749C8.88601 6.65234 8.55852 6.788 8.31706 7.02946C8.07559 7.27092 7.93994 7.59842 7.93994 7.9399V10.515C7.93994 10.8565 8.07559 11.184 8.31706 11.4254C8.55852 11.6669 8.88601 11.8026 9.22749 11.8026H13.1617C13.285 11.8026 13.4033 11.8515 13.4905 11.9387C13.5777 12.0259 13.6266 12.1442 13.6266 12.2675V20.279C13.6536 20.6015 13.8011 20.9021 14.0397 21.1208C14.2783 21.3395 14.5905 21.4603 14.9142 21.4592H17.4893C17.8308 21.4592 18.1583 21.3236 18.3997 21.0821C18.6412 20.8406 18.7769 20.5131 18.7769 20.1717V12.2675C18.7769 12.1442 18.8258 12.0259 18.913 11.9387C19.0002 11.8515 19.1185 11.8026 19.2418 11.8026H22.8183C23.1598 11.8026 23.4873 11.6669 23.7288 11.4254C23.9702 11.184 24.1059 10.8565 24.1059 10.515V7.9399C24.1059 7.59842 23.9702 7.27092 23.7288 7.02946C23.4873 6.788 23.1598 6.65234 22.8183 6.65234" fill="white"/>
</g>
<path d="M62.196 2.75399C62.7503 2.7434 63.2921 2.91978 63.7339 3.25471C63.931 3.39906 64.0918 3.58733 64.2036 3.80461C64.3153 4.02188 64.3749 4.26219 64.3777 4.50649C64.3722 4.74525 64.3111 4.97945 64.1994 5.19052C64.0876 5.40159 63.9283 5.58373 63.7339 5.72252C63.3044 6.08386 62.7571 6.27478 62.196 6.259H54.0415V26.9672C54.0418 27.207 53.9833 27.4433 53.8711 27.6554C53.7588 27.8674 53.5963 28.0486 53.3977 28.1832C52.9774 28.5323 52.4413 28.711 51.8956 28.6839C51.3488 28.7183 50.8102 28.5387 50.3934 28.1832C50.1948 28.0486 50.0323 27.8674 49.9201 27.6554C49.8078 27.4433 49.7493 27.207 49.7496 26.9672V6.259H41.5951C41.0341 6.27478 40.4867 6.08386 40.0572 5.72252C39.8535 5.58746 39.6832 5.40776 39.5592 5.19706C39.4353 4.98636 39.361 4.7502 39.3419 4.50649C39.3583 4.25723 39.4312 4.01496 39.5551 3.79807C39.6791 3.58118 39.8508 3.39536 40.0572 3.25471C40.4991 2.91978 41.0408 2.7434 41.5951 2.75399H62.196Z" fill="black"/>
<path d="M82.7969 2.43203C84.4067 2.41028 86.0041 2.71613 87.492 3.33097C88.9799 3.94581 90.3272 4.8568 91.4521 6.00856C92.5985 7.08489 93.5085 8.38794 94.1242 9.83488C94.74 11.2818 95.048 12.841 95.0286 14.4134V26.9671C95.0361 27.2043 94.9845 27.4396 94.8783 27.6519C94.7722 27.8642 94.6149 28.0468 94.4206 28.1831C94.0064 28.4847 93.5018 28.636 92.99 28.6123C92.4335 28.6381 91.8867 28.4601 91.4521 28.1116C91.2535 27.977 91.091 27.7958 90.9787 27.5838C90.8665 27.3717 90.808 27.1354 90.8083 26.8955V20.6008H79.0773C78.5274 20.6145 77.992 20.4233 77.5751 20.0644C77.3759 19.9261 77.2132 19.7416 77.1008 19.5267C76.9884 19.3118 76.9297 19.073 76.9297 18.8305C76.9297 18.588 76.9884 18.3491 77.1008 18.1342C77.2132 17.9193 77.3759 17.7348 77.5751 17.5965C78.0033 17.2617 78.5339 17.0848 79.0773 17.0958H90.701V14.3061C90.7289 13.2061 90.5377 12.1116 90.1386 11.0862C89.7395 10.0608 89.1404 9.12501 88.3763 8.33331C87.6703 7.55749 86.8083 6.93973 85.8467 6.52058C84.8851 6.10144 83.8458 5.89038 82.7969 5.90127C81.7427 5.88984 80.6978 6.10049 79.7304 6.51951C78.7629 6.93853 77.8946 7.55653 77.1817 8.33331C75.655 9.94326 74.8203 12.0877 74.857 14.3061V27.0386C74.8505 27.2734 74.7927 27.5039 74.6877 27.714C74.5826 27.924 74.4329 28.1086 74.249 28.2546C73.8023 28.5802 73.2638 28.7556 72.711 28.7556C72.1583 28.7556 71.6198 28.5802 71.1731 28.2546C70.9892 28.1086 70.8395 27.924 70.7344 27.714C70.6294 27.5039 70.5716 27.2734 70.5651 27.0386V14.3061C70.5414 12.7331 70.8474 11.1726 71.4634 9.72498C72.0794 8.27739 72.9917 6.97486 74.1417 5.90127C75.2756 4.76887 76.627 3.87772 78.1145 3.2815C79.602 2.68527 81.1948 2.39631 82.7969 2.43203Z" fill="black"/>
<path d="M102.825 4.50647C102.828 4.26217 102.888 4.02186 103 3.80459C103.111 3.58731 103.272 3.39904 103.469 3.25469C103.908 2.9146 104.452 2.7376 105.007 2.75397C105.55 2.74864 106.078 2.92489 106.509 3.25469C106.696 3.40624 106.847 3.59686 106.952 3.81313C107.057 4.0294 107.114 4.26607 107.117 4.50647V26.9671C107.119 27.2034 107.064 27.4366 106.959 27.6479C106.853 27.8592 106.699 28.0426 106.509 28.1832C106.086 28.5263 105.552 28.7042 105.007 28.6839C104.45 28.7165 103.901 28.5377 103.469 28.1832C103.271 28.0486 103.108 27.8673 102.996 27.6553C102.884 27.4433 102.825 27.207 102.825 26.9671V4.50647Z" fill="black"/>
<path d="M125.179 2.75388H128.398C131.026 2.62529 133.628 3.32592 135.837 4.75674C136.703 5.34574 137.409 6.14158 137.89 7.07213C138.37 8.00268 138.611 9.03852 138.591 10.0858C138.615 11.1348 138.379 12.1734 137.905 13.1094C137.431 14.0454 136.733 14.8496 135.873 15.4506C133.69 16.8803 131.111 17.5815 128.505 17.4535L137.339 25.8941C137.495 26.0418 137.619 26.2192 137.705 26.4158C137.791 26.6123 137.837 26.8241 137.84 27.0386C137.837 27.3 137.767 27.5563 137.635 27.7821C137.504 28.0079 137.315 28.1954 137.089 28.3261C136.682 28.6152 136.193 28.7657 135.694 28.7553C135.098 28.7735 134.519 28.5549 134.084 28.1473L122.067 16.8454C121.914 16.7054 121.793 16.5337 121.713 16.3423C121.632 16.1508 121.595 15.9442 121.602 15.7367C121.575 15.4551 121.627 15.1714 121.754 14.9183C121.88 14.6652 122.076 14.453 122.318 14.3061C122.729 14.0257 123.215 13.8761 123.712 13.8769H128.219C132.153 13.8769 134.12 12.5894 134.12 9.97849C134.12 7.36762 132.332 6.25889 128.219 6.25889H125.179C121.459 6.25889 119.599 7.61797 119.599 10.3361V26.967C119.6 27.2069 119.541 27.4432 119.429 27.6552C119.317 27.8673 119.154 28.0485 118.956 28.1831C118.539 28.5386 118 28.7182 117.454 28.6838C116.897 28.7096 116.35 28.5316 115.916 28.1831C115.721 28.0467 115.564 27.8642 115.458 27.6519C115.352 27.4396 115.3 27.2043 115.308 26.967V10.3361C115.265 9.26653 115.483 8.20258 115.944 7.23656C116.406 6.27053 117.095 5.4316 117.954 4.79251C120.068 3.32766 122.611 2.61022 125.179 2.75388Z" fill="black"/>
<path d="M155.329 2.75397H158.512C161.141 2.62538 163.743 3.326 165.951 4.75683C166.825 5.33868 167.536 6.13307 168.017 7.0653C168.499 7.99753 168.736 9.03696 168.705 10.0859C168.729 11.1348 168.494 12.1735 168.02 13.1095C167.545 14.0455 166.847 14.8497 165.987 15.4507C163.805 16.8804 161.225 17.5816 158.619 17.4535L167.489 25.8942C167.64 26.0437 167.759 26.2222 167.839 26.4189C167.919 26.6156 167.958 26.8264 167.954 27.0387C167.952 27.3001 167.881 27.5564 167.75 27.7822C167.618 28.008 167.43 28.1955 167.203 28.3262C166.807 28.6103 166.331 28.7606 165.844 28.7554C165.237 28.7753 164.647 28.5571 164.199 28.1474L152.361 16.8455C152.199 16.7105 152.07 16.5407 151.983 16.3486C151.896 16.1566 151.854 15.9474 151.86 15.7368C151.834 15.4472 151.896 15.1566 152.036 14.9019C152.176 14.6471 152.388 14.4398 152.647 14.3062C153.042 14.0221 153.519 13.8718 154.006 13.877H158.512C162.446 13.877 164.413 12.5894 164.413 9.97857C164.413 7.3677 162.446 6.15168 158.512 6.15168H155.329C151.753 6.15168 149.714 7.51076 149.714 10.2289V26.9671C149.715 27.2034 149.661 27.4366 149.555 27.6479C149.45 27.8592 149.296 28.0425 149.106 28.1832C148.659 28.5087 148.121 28.6842 147.568 28.6842C147.015 28.6842 146.477 28.5087 146.03 28.1832C145.84 28.0425 145.686 27.8592 145.581 27.6479C145.475 27.4366 145.421 27.2034 145.422 26.9671V10.3362C145.388 9.26795 145.611 8.2071 146.071 7.24257C146.532 6.27804 147.217 5.43792 148.069 4.79259C150.196 3.32756 152.75 2.6105 155.329 2.75397Z" fill="black"/>
<path d="M187.768 2.43203C189.379 2.40397 190.978 2.70693 192.467 3.32214C193.956 3.93735 195.302 4.85171 196.423 6.00857C197.573 7.08216 198.486 8.38469 199.102 9.83228C199.718 11.2799 200.024 12.8404 200 14.4134V26.9671C200.001 27.2033 199.947 27.4365 199.841 27.6478C199.736 27.8591 199.582 28.0425 199.392 28.1831C198.968 28.5262 198.435 28.7041 197.89 28.6838C197.333 28.7096 196.787 28.5316 196.352 28.1831C196.153 28.0485 195.991 27.8673 195.879 27.6553C195.766 27.4433 195.708 27.207 195.708 26.9671V20.6008H184.084C183.783 20.6271 183.479 20.5932 183.19 20.5011C182.902 20.409 182.634 20.2606 182.403 20.0644C182.204 19.9261 182.042 19.7416 181.929 19.5267C181.817 19.3118 181.758 19.073 181.758 18.8305C181.758 18.588 181.817 18.3491 181.929 18.1342C182.042 17.9193 182.204 17.7349 182.403 17.5966C182.845 17.2616 183.387 17.0852 183.941 17.0958H195.565V14.3061C195.602 12.0877 194.767 9.94326 193.24 8.33332C192.524 7.56544 191.658 6.95313 190.695 6.53448C189.732 6.11582 188.693 5.89977 187.643 5.89977C186.593 5.89977 185.554 6.11582 184.591 6.53448C183.628 6.95313 182.762 7.56544 182.046 8.33332C181.307 9.13655 180.734 10.0775 180.36 11.1024C179.986 12.1273 179.817 13.216 179.864 14.3061V27.0386C179.859 27.2774 179.798 27.5116 179.686 27.7226C179.574 27.9337 179.415 28.1158 179.22 28.2546C178.804 28.6102 178.265 28.7898 177.718 28.7554C177.162 28.7812 176.615 28.6031 176.18 28.2546C175.996 28.1086 175.847 27.924 175.742 27.714C175.637 27.5039 175.579 27.2734 175.572 27.0386V14.3061C175.549 12.7331 175.855 11.1726 176.471 9.72498C177.087 8.2774 177.999 6.97487 179.149 5.90127C180.276 4.76991 181.621 3.8791 183.103 3.28278C184.584 2.68646 186.172 2.39704 187.768 2.43203Z" fill="black"/>
</g>
<defs>
<linearGradient id="paint0_linear_2_174" x1="30.2975" y1="1.60534" x2="-5.08537" y2="5.86208" gradientUnits="userSpaceOnUse">
<stop offset="0.6" stop-color="#1594FF"/>
<stop offset="1" stop-color="#D4145A"/>
</linearGradient>
<linearGradient id="paint1_linear_2_174" x1="-2.69277" y1="22.55" x2="19.794" y2="14.4453" gradientUnits="userSpaceOnUse">
<stop stop-color="#FF1A92"/>
<stop offset="1" stop-color="#1B93FF"/>
</linearGradient>
<linearGradient id="paint2_linear_2_174" x1="0.21048" y1="10.1197" x2="17.5339" y2="28.1844" gradientUnits="userSpaceOnUse">
<stop stop-color="#FF1493"/>
<stop offset="0.05" stop-color="#FF1493"/>
<stop offset="1" stop-color="#ED1E79"/>
</linearGradient>
<clipPath id="clip0_2_174">
<rect width="200" height="29.3634" fill="white"/>
</clipPath>
</defs>
</svg>
